<svg xmlns="http://www.w3.org/2000/svg" viewBox="0 0 85.947 78.993"><defs><style>.cls-1,.cls-2{fill:none;stroke:#171717;stroke-miterlimit:10;stroke-width:2px;}.cls-2{stroke-linecap:round;}</style></defs><g id="Layer_2" data-name="Layer 2"><g id="Layer_1-2" data-name="Layer 1"><path class="cls-1" d="M60.469,32.268a19.091,19.091,0,1,1-38.178,0c0-10.7,19.089-30.815,19.089-30.815S60.469,21.568,60.469,32.268Z"/><path class="cls-2" d="M56.2,36.714a8.759,8.759,0,0,1-5.348,6.635"/><path class="cls-1" d="M29.442,78.122c-1.343-.758-3.353-1.892-5.8-3.267-9.885-5.561-9.928-5.535-10.432-5.978-3.957-3.475-2.328-5.95-7.092-17.053C2.961,44.457.13,40.62,1.249,39.609c1.06-.958,4.654,1.523,5.01,1.776,3.629,2.579,4.855,5.738,6.626,8.878A41.431,41.431,0,0,0,23.843,62.839c-.04.038-7.117-5.885-8.551-9.368-.558-1.354-.67-1.923.287-2.973a2.992,2.992,0,0,1,1.858-.629c2.313-.041,5.773,3.787,5.99,4.027,6.153,6.8,8.931,4.83,11.1,9.551.938,2.043.732,3.095,2.762,8.219.593,1.5,1.125,2.7,1.487,3.5"/><path class="cls-1" d="M56.505,78.122c1.343-.758,3.353-1.892,5.8-3.267,9.885-5.561,9.927-5.535,10.432-5.978,3.957-3.475,2.328-5.95,7.092-17.053,3.16-7.367,5.992-11.2,4.872-12.215-1.059-.958-4.653,1.523-5.009,1.776-3.629,2.579-4.855,5.738-6.627,8.878A41.4,41.4,0,0,1,62.1,62.839c.04.038,7.118-5.885,8.552-9.368.557-1.354.67-1.923-.287-2.973a2.992,2.992,0,0,0-1.858-.629c-2.314-.041-5.773,3.787-5.99,4.027-6.154,6.8-8.932,4.83-11.1,9.551-.939,2.043-.732,3.095-2.763,8.219-.592,1.5-1.124,2.7-1.486,3.5"/></g></g></svg>