<svg xmlns="http://www.w3.org/2000/svg" viewBox="0 0 75.807 78.669"><defs><style>.cls-1,.cls-2{fill:none;}.cls-1,.cls-2,.cls-3{stroke:#171717;stroke-miterlimit:10;stroke-width:2px;}.cls-2,.cls-3{stroke-linecap:round;}.cls-3{fill:#171717;}</style></defs><g id="Layer_2" data-name="Layer 2"><g id="Layer_1-2" data-name="Layer 1"><path class="cls-1" d="M7.788,72.491c2.177.436,5.434,1.089,9.39,1.887,16.006,3.23,16.027,3.3,16.994,3.291,7.585-.05,8.146-4.231,23.8-11.734,10.388-4.979,17.088-6.468,16.824-8.6-.25-2.017-6.5-2.7-7.128-2.757-6.383-.609-10.7,1.647-15.587,3.374A60.331,60.331,0,0,1,28.3,61.269c.008.078,13.3.3,18.144-2.108,1.884-.937,2.543-1.444,2.491-3.465A4.246,4.246,0,0,0,47.5,53.288c-2.48-2.2-9.856-1.306-10.318-1.25-13.109,1.578-14.278-3.127-21.09-.07-2.948,1.324-3.715,2.648-10.758,6.268C3.28,59.291,1.559,60.1.414,60.618"/><line class="cls-2" x1="15.453" y1="36.235" x2="19.698" y2="8.537"/><line class="cls-2" x1="25.8" y1="35.889" x2="19.739" y2="8.346"/><line class="cls-2" x1="57.601" y1="17.128" x2="19.782" y2="8.245"/><line class="cls-2" x1="53.382" y1="45.206" x2="57.628" y2="17.508"/><line class="cls-2" x1="63.73" y1="44.86" x2="57.669" y2="17.317"/><ellipse class="cls-3" cx="38.691" cy="13.212" rx="2.046" ry="2.022"/><ellipse class="cls-3" cx="38.691" cy="1.935" rx="0.946" ry="0.935"/><line class="cls-2" x1="38.691" y1="2.156" x2="38.691" y2="11.384"/><rect class="cls-2" x="14.177" y="36.136" width="12.928" height="3.824" rx="0.443"/><rect class="cls-2" x="52.208" y="45.241" width="12.928" height="3.824" rx="0.443"/></g></g></svg>